<?xml version="1.0" encoding="UTF-8" standalone="no"?>
<svg
   xmlns:dc="http://purl.org/dc/elements/1.1/"
   xmlns:cc="http://creativecommons.org/ns#"
   xmlns:rdf="http://www.w3.org/1999/02/22-rdf-syntax-ns#"
   xmlns:svg="http://www.w3.org/2000/svg"
   xmlns="http://www.w3.org/2000/svg"
   xmlns:sodipodi="http://sodipodi.sourceforge.net/DTD/sodipodi-0.dtd"
   xmlns:inkscape="http://www.inkscape.org/namespaces/inkscape"
   width="25"
   height="15"
   viewBox="0 0 6.6145 3.9687"
   version="1.1"
   id="svg8"
   inkscape:version="1.0.1 (3bc2e813f5, 2020-09-07)"
   sodipodi:docname="case_study.svg">
  <defs
     id="defs2" />
  <sodipodi:namedview
     id="base"
     pagecolor="#ffffff"
     bordercolor="#666666"
     borderopacity="1.0"
     inkscape:pageopacity="0.0"
     inkscape:pageshadow="2"
     inkscape:zoom="22.4"
     inkscape:cx="8.4766221"
     inkscape:cy="8.9387418"
     inkscape:document-units="px"
     inkscape:current-layer="layer2"
     inkscape:document-rotation="0"
     showgrid="false"
     units="px"
     inkscape:window-width="1920"
     inkscape:window-height="1017"
     inkscape:window-x="-8"
     inkscape:window-y="-8"
     inkscape:window-maximized="1"
     scale-x="0.26458"
     showborder="true"
     borderlayer="true"
     inkscape:showpageshadow="false" />
  <metadata
     id="metadata5">
    <rdf:RDF>
      <cc:Work
         rdf:about="">
        <dc:format>image/svg+xml</dc:format>
        <dc:type
           rdf:resource="http://purl.org/dc/dcmitype/StillImage" />
        <dc:title></dc:title>
      </cc:Work>
    </rdf:RDF>
  </metadata>
  <g
     inkscape:label="fundo"
     inkscape:groupmode="layer"
     id="layer1" />
  <g
     inkscape:groupmode="layer"
     id="layer2"
     inkscape:label="lentes">
    <path
       style="fill:#646464;fill-opacity:1;stroke:none;stroke-width:0.0127373px;stroke-linecap:butt;stroke-linejoin:miter;stroke-opacity:1"
       d="m 0.41052967,0.64789391 c 0,0 0.0558851,-0.19255134 0.40237289,-0.14811724 C 1.1593903,0.54421185 1.125859,0.4553415 1.4499926,0.63308174 1.7741263,0.81081987 1.7964802,0.89969114 1.930605,0.94412489 2.0647285,0.98856007 2.0647285,1.07743 1.87472,1.1366765 1.6847111,1.1959205 1.6623565,1.2403532 1.3941077,1.1959205 1.1258597,1.1514881 0.96938189,1.0181808 0.75701785,1.0478045 c -0.21236293,0.029624 -0.22354003,0.1036757 -0.38001779,0 C 0.2205211,0.94411691 0.0752194,0.91449907 0.18698999,0.84044044 0.29876053,0.76638548 0.41053008,0.64788931 0.41052967,0.64789391 Z"
       id="path12" />
    <path
       style="fill:#646464;fill-opacity:1;stroke:none;stroke-width:0.0091823px;stroke-linecap:butt;stroke-linejoin:miter;stroke-opacity:1"
       d="m 4.8092098,0.95574293 c 0,0 0.2123763,-0.20255337 0.5097033,-0.26737027 C 5.6162418,0.62355736 6.0303759,0.58304424 6.1578019,0.63975886 6.2852307,0.69647576 6.465747,0.76939408 6.5613164,0.7937013 6.6568914,0.8180091 6.7630738,0.8909269 6.7099813,0.93953974 6.6568885,0.98815258 6.4126526,1.0286639 6.2639908,1.020561 6.1153258,1.0124569 6.0197593,0.91523282 5.7542876,0.93953969 5.4888151,0.96384859 5.4781992,0.98004759 5.2021069,0.98815258 4.9260185,0.99625672 4.8516853,0.97194761 4.8092098,0.95574293 Z"
       id="path14" />
    <path
       style="fill:#646464;fill-opacity:1;stroke:none;stroke-width:0.0071727px;stroke-linecap:butt;stroke-linejoin:miter;stroke-opacity:1"
       d="m 3.4712691,1.739543 c 0,0 -0.023395,-0.1413088 0.4056897,-0.1614963 0.4290953,-0.020184 0.6787498,-0.080749 0.795776,-0.00676 0.1170279,0.074019 0.1404334,0.1547664 0.2574565,0.2355142 0.1170253,0.080749 0.054608,0.1211217 -0.062416,0.1413086 -0.1170254,0.020184 -0.2496527,-0.053833 -0.4837068,-0.053833 -0.2340527,0 -0.3588795,-0.040376 -0.5383189,0.02692 C 3.6663087,1.9884868 3.627301,2.0894222 3.5336812,1.9750305 3.4400612,1.8606378 3.4166533,1.7798894 3.4712679,1.7395162 Z"
       id="path16" />
    <path
       style="fill:#646464;fill-opacity:1;stroke:none;stroke-width:0.0120425px;stroke-linecap:butt;stroke-linejoin:miter;stroke-opacity:1"
       d="M 5.319237,2.610075 C 5.384733,2.598784 6.013464,2.2937458 6.3671255,2.3502322 c 0.3536612,0.056489 0.7728176,0.1468662 0.9169019,0.3163291 0.1440855,0.1694629 0.2095805,0.3276286 0,0.3276286 -0.2095762,0 -0.2357709,-0.1920598 -0.707326,-0.067786 C 6.1051493,3.0506758 5.9217719,3.1636523 5.5419131,3.0732716 5.1620489,2.9828903 4.8607861,2.8699171 4.7821952,2.7908341 4.7035987,2.7117485 4.90009,2.6213721 5.004876,2.6100753 c 0.1047914,-0.011291 0.1833773,0.056489 0.314361,-3e-7 z"
       id="path18" />
    <path
       style="fill:#646464;fill-opacity:1;stroke:none;stroke-width:0.0111005px;stroke-linecap:butt;stroke-linejoin:miter;stroke-opacity:1"
       d="m 2.0420057,3.4197815 c 0,0 -0.040584,0.195184 0.7034531,0.2230665 0.7440366,0.027864 1.1769304,0.1115304 1.3798502,0.0093 C 4.3282268,3.5499073 4.3688134,3.438375 4.5717311,3.3268433 4.7746489,3.2153091 4.6664267,3.1595429 4.4635074,3.1316593 4.2605897,3.1037671 4.0306147,3.2060159 3.6247749,3.2060159 c -0.4058378,0 -0.6222857,0.055767 -0.9334287,-0.037176 C 2.380205,3.0758838 2.3125649,2.936465 2.1502291,3.094472 1.9878945,3.252479 1.9473097,3.3640124 2.0420062,3.4197776 Z"
       id="path16-3" />
  </g>
  <g
     inkscape:groupmode="layer"
     id="layer3"
     inkscape:label="dique">
    <path
       style="fill:#c8c8c8;fill-opacity:1;stroke:none;stroke-width:0.00753419px;stroke-linecap:butt;stroke-linejoin:miter;stroke-opacity:1"
       d="m -0.83952795,4.3188868 c 0,0 0.18028764,-0.4523572 0.41793894,-0.6502637 C -0.18393733,3.4707173 0.14385779,3.2233345 0.36511946,2.9264754 0.58638098,2.6296169 0.61916069,2.4882552 0.89778651,2.2408725 1.176412,1.9934897 1.2255821,2.007626 1.4386481,1.7602437 1.6517151,1.5128611 1.6844953,1.4421806 1.9057568,1.2089338 2.1270182,0.97568826 2.2745261,0.91207484 2.438424,0.71416814 2.6023219,0.51626113 2.4712018,0.622284 2.749829,0.33249241 3.0284547,0.04270134 2.9710913,0.1416547 3.0612349,-0.02091095 3.1513786,-0.18347697 3.3070826,-0.27536179 3.3070826,-0.27536179 l 0.7129545,-0.15549711 0.3359903,0.0282717 0.073752,0.17670188 c 0,0 -0.4507181,0.57251387 -0.696565,0.72801163 C 3.4873662,0.65762305 3.2251307,0.94741477 3.1185971,1.07464 3.0120644,1.2018655 2.8317764,1.4492481 2.7498282,1.6188822 2.6678745,1.7885151 2.5531504,2.0500343 2.5285656,2.1560557 2.5039808,2.2620758 2.4875934,2.3822335 2.4384218,2.4953232 2.3892546,2.6084123 2.2581341,2.8699314 2.1761857,2.9830203 2.0942307,3.0961103 1.6517115,3.4919223 1.5287881,3.5767398 1.4058648,3.6615562 1.1764085,3.7817138 1.0452905,3.8877354 0.91417237,3.9937555 0.65193584,4.205798 0.51262341,4.34716 0.3733101,4.4885226 0.04551486,4.6228149 -0.02823905,4.6157471 -0.10198975,4.6086531 -0.70841392,4.4249087 -0.70841392,4.4249087 Z"
       id="path845" />
  </g>
</svg>
