<?xml version="1.0" encoding="UTF-8" standalone="no"?>
<!-- Created with Inkscape (http://www.inkscape.org/) -->

<svg
   xmlns:dc="http://purl.org/dc/elements/1.1/"
   xmlns:cc="http://creativecommons.org/ns#"
   xmlns:rdf="http://www.w3.org/1999/02/22-rdf-syntax-ns#"
   xmlns:svg="http://www.w3.org/2000/svg"
   xmlns="http://www.w3.org/2000/svg"
   xmlns:sodipodi="http://sodipodi.sourceforge.net/DTD/sodipodi-0.dtd"
   xmlns:inkscape="http://www.inkscape.org/namespaces/inkscape"
   width="90"
   height="90"
   viewBox="0 0 23.812499 23.812501"
   version="1.1"
   id="svg8"
   inkscape:version="0.92.4 (5da689c313, 2019-01-14)"
   sodipodi:docname="geomap1.svg">
  <defs
     id="defs2" />
  <sodipodi:namedview
     id="base"
     pagecolor="#ffffff"
     bordercolor="#666666"
     borderopacity="1.0"
     inkscape:pageopacity="0.0"
     inkscape:pageshadow="2"
     inkscape:zoom="7.9195959"
     inkscape:cx="52.536865"
     inkscape:cy="53.308843"
     inkscape:document-units="px"
     inkscape:current-layer="layer1"
     showgrid="false"
     units="px"
     inkscape:window-width="1920"
     inkscape:window-height="1017"
     inkscape:window-x="-8"
     inkscape:window-y="-8"
     inkscape:window-maximized="1" />
  <metadata
     id="metadata5">
    <rdf:RDF>
      <cc:Work
         rdf:about="">
        <dc:format>image/svg+xml</dc:format>
        <dc:type
           rdf:resource="http://purl.org/dc/dcmitype/StillImage" />
        <dc:title></dc:title>
      </cc:Work>
    </rdf:RDF>
  </metadata>
  <g
     inkscape:groupmode="layer"
     id="layer3"
     inkscape:label="Layer 3">
    <rect
       style="fill:#000000;fill-opacity:1;stroke:none;stroke-width:0.26499999;stroke-miterlimit:4;stroke-dasharray:none;stroke-opacity:1"
       id="rect821"
       width="29.700325"
       height="26.259232"
       x="-1.3697563"
       y="-0.74288785" />
  </g>
  <g
     inkscape:label="Layer 1"
     inkscape:groupmode="layer"
     id="layer1"
     transform="translate(0,-273.18748)">
    <path
       style="fill:#646464;fill-opacity:1;stroke:none;stroke-width:0.27918956px;stroke-linecap:butt;stroke-linejoin:miter;stroke-opacity:1"
       d="m -3.4076865,296.89329 c 0,0 4.21184922,-4.77004 8.4950856,-5.29231 4.2832368,-0.52226 12.9567909,-4.80486 13.5278889,-11.07206 0.571098,-6.26721 0.963728,-9.67935 4.961416,-9.88826 3.997686,-0.2089 7.45997,9.05263 7.45997,9.05263 l -5.532514,18.48826 -15.455345,0.52227 z"
       id="path815"
       inkscape:connector-curvature="0" />
  </g>
  <g
     inkscape:groupmode="layer"
     id="layer2"
     inkscape:label="Layer 2">
    <path
       style="fill:#c8c8c8;stroke:none;stroke-width:0.26458332px;stroke-linecap:butt;stroke-linejoin:miter;stroke-opacity:1;fill-opacity:1"
       d="m 3.3074604,12.219684 c 0,0 2.9399648,-1.703843 1.9377041,-3.7083645 C 4.2429038,6.5067981 1.837478,5.2706764 2.9733734,3.8341027 4.1092688,2.397529 8.0180856,0.42641628 10.623964,1.4620857 c 2.605877,1.0356694 3.674956,-0.80180858 6.581512,2.4054257 2.906556,3.2072344 6.414468,3.5079124 4.877668,6.6483296 -1.536799,3.140417 -1.336347,7.015825 -4.610399,7.784225 -3.274052,0.7684 -3.875408,-0.400905 -6.614921,0.233861 C 8.1183119,19.168692 5.9467469,20.371405 4.6103992,19.235509 3.2740518,18.099614 2.0379301,17.230988 3.0401908,15.827823 4.0424515,14.424658 2.8731474,13.08831 3.3074604,12.219684 Z"
       id="path818"
       inkscape:connector-curvature="0" />
  </g>
</svg>
